<svg xmlns="http://www.w3.org/2000/svg" width="300" height="240" viewBox="0 0 300 240" version="1.1"><path d="" stroke="none" fill="#500404" fill-rule="evenodd"/><path d="M 115.500 1.100 C 92.892 4.327, 68.037 18.041, 54.355 34.837 L 50 40.183 50 33.492 C 50 27.215, 49.789 26.589, 46.600 23.400 L 43.200 20 25 20 L 6.800 20 3.400 23.400 L -0 26.800 -0 120 L -0 213.200 3.400 216.600 L 6.800 220 25 220 L 43.200 220 46.600 216.600 C 49.744 213.456, 50.002 212.722, 50.027 206.850 L 50.055 200.500 55.615 206.741 C 65.993 218.391, 82.970 229.456, 98.758 234.861 C 112.104 239.429, 121.107 240.219, 154.482 239.753 C 188.186 239.281, 191.631 238.805, 207.687 232.394 C 221.692 226.801, 237.512 215.423, 245.859 204.940 L 250 199.739 250 206.469 C 250 212.790, 250.207 213.407, 253.400 216.600 L 256.800 220 275.055 220 L 293.310 220 297.155 215.958 L 301 211.916 301 118.791 C 301 67.573, 300.760 25.907, 300.467 26.200 C 300.173 26.493, 298.418 25.218, 296.567 23.367 L 293.200 20 275 20 L 256.800 20 253.400 23.400 C 250.256 26.544, 249.998 27.278, 249.973 33.150 L 249.945 39.500 244.385 33.259 C 230.157 17.287, 208.323 5.334, 186.391 1.509 C 176.743 -0.173, 126.455 -0.463, 115.500 1.100 M 115 21.496 C 93.460 25.831, 73.777 39.354, 62.371 57.656 L 57.793 65 44.896 65 L 32 65 32 51.500 L 32 38 25 38 L 18 38 18 120 L 18 202 25 202 L 32 202 32 188.500 L 32 175 44.896 175 L 57.793 175 62.371 182.344 C 74.045 201.075, 94.069 214.602, 116 218.572 C 127.263 220.611, 174.630 220.507, 184.730 218.421 C 207.206 213.778, 226.045 200.930, 237.629 182.344 L 242.207 175 255.104 175 L 268 175 268 188.500 L 268 202 275 202 L 282 202 282 120 L 282 38 275 38 L 268 38 268 51.500 L 268 65 255.104 65 L 242.207 65 237.629 57.656 C 225.955 38.925, 205.931 25.398, 184 21.428 C 173.883 19.596, 124.197 19.645, 115 21.496 M 0.480 120 C 0.480 171.425, 0.601 192.462, 0.750 166.750 C 0.898 141.037, 0.898 98.962, 0.750 73.250 C 0.601 47.537, 0.480 68.575, 0.480 120 M 63.400 113.400 C 58.787 118.013, 58.787 121.987, 63.400 126.600 L 66.800 130 150 130 L 233.200 130 236.600 126.600 C 241.213 121.987, 241.213 118.013, 236.600 113.400 L 233.200 110 150 110 L 66.800 110 63.400 113.400" stroke="none" fill="#4c0404" fill-rule="evenodd"/></svg>