<svg xmlns="http://www.w3.org/2000/svg" width="300" height="240" viewBox="0 0 300 240" version="1.1"><path d="" stroke="none" fill="#500404" fill-rule="evenodd"/><path d="M 118.500 0.644 C 92.644 4.315, 71.014 16.010, 54.234 35.391 L 50 40.282 50 33.541 C 50 27.208, 49.794 26.594, 46.600 23.400 L 43.200 20 25 20 L 6.800 20 3.400 23.400 L -0 26.800 -0 120 L -0 213.200 3.400 216.600 L 6.800 220 25 220 L 43.200 220 46.600 216.600 C 49.783 213.417, 50 212.777, 50 206.567 L 50 199.933 54.570 205.079 C 67.805 219.981, 83.182 229.996, 101.017 235.331 C 115.622 239.699, 122.151 240.235, 155.020 239.760 C 183.908 239.343, 186.007 239.185, 195.208 236.729 C 213.593 231.820, 231.238 221.209, 243.750 207.539 L 250 200.711 250 206.955 C 250 212.724, 250.259 213.459, 253.400 216.600 L 256.800 220 275.055 220 L 293.310 220 297.155 215.958 L 301 211.916 301 118.791 C 301 67.573, 300.760 25.907, 300.467 26.200 C 300.173 26.493, 298.418 25.218, 296.567 23.367 L 293.200 20 275 20 L 256.800 20 253.400 23.400 C 250.283 26.517, 250 27.303, 250 32.847 L 250 38.895 241.250 30.126 C 227.355 16.202, 212.580 7.737, 193.500 2.771 C 186.319 0.901, 182.225 0.664, 153.500 0.453 C 135.900 0.323, 120.150 0.409, 118.500 0.644 M 117.831 20.986 C 105.445 23.175, 92.305 28.753, 82.562 35.957 C 75.355 41.287, 66.085 51.572, 62 58.772 L 58.500 64.941 45.250 64.970 L 32 65 32 51.500 L 32 38 25 38 L 18 38 18 120 L 18 202 25 202 L 32 202 32 188.500 L 32 175 45.250 175.030 L 58.500 175.059 62 181.228 C 71.354 197.713, 89.843 211.665, 109.751 217.260 C 116.974 219.290, 119.707 219.440, 150 219.469 C 178.458 219.496, 183.371 219.271, 189.500 217.655 C 210.066 212.235, 229.305 197.761, 239.219 180.250 L 242.191 175 255.095 175 L 268 175 268 188.500 L 268 202 275 202 L 282 202 282 120 L 282 38 275 38 L 268 38 268 51.500 L 268 65 255.095 65 L 242.191 65 239.219 59.750 C 231.839 46.714, 218.882 34.855, 204.578 28.044 C 190.005 21.104, 187.194 20.688, 153 20.409 C 136.225 20.272, 120.399 20.532, 117.831 20.986 M 0.480 120 C 0.480 171.425, 0.601 192.462, 0.750 166.750 C 0.898 141.037, 0.898 98.962, 0.750 73.250 C 0.601 47.537, 0.480 68.575, 0.480 120 M 205.529 61.204 C 202.901 62.728, 83.849 161.951, 82.257 163.944 C 76.317 171.381, 84.186 182.633, 93.001 179.306 C 96.605 177.945, 216.354 78.179, 218.384 74.846 C 219.273 73.386, 220 71.270, 220 70.143 C 220 62.952, 211.534 57.722, 205.529 61.204" stroke="none" fill="#4c0404" fill-rule="evenodd"/></svg>