<svg xmlns="http://www.w3.org/2000/svg" width="100" height="600" viewBox="0 0 100 600" version="1.1"><path d="" stroke="none" fill="#b8b4b4" fill-rule="evenodd"/><path d="M 10 1.600 C 10 2.480, 11.530 4.730, 13.400 6.600 C 16.768 9.968, 16.884 10, 25.900 10 L 35 10 35 22.500 L 35 35 19.155 35 C 5.075 35, 3.126 35.204, 1.655 36.829 C 0.123 38.521, 0 59.449, 0 317.674 C 0 585.427, 0.073 596.756, 1.806 598.324 C 3.423 599.787, 8.475 599.959, 50.013 599.959 C 96.142 599.959, 96.428 599.946, 98.707 597.805 L 101 595.651 101 316.267 C 101 154.066, 100.628 37.112, 100.113 37.430 C 99.626 37.731, 98.671 37.308, 97.991 36.489 C 96.991 35.285, 93.719 35, 80.878 35 L 65 35 65 22.500 L 65 10 74.100 10 C 83.116 10, 83.232 9.968, 86.600 6.600 C 92.894 0.306, 92.241 0, 72.500 0 L 55 0 55 20.845 C 55 39.769, 55.169 41.843, 56.829 43.345 C 58.367 44.737, 61.150 45, 74.329 45 L 90 45 90 70 L 90 95 50 95 L 10 95 10 70 L 10 45 25.845 45 C 39.925 45, 41.874 44.796, 43.345 43.171 C 44.773 41.594, 45 38.503, 45 20.671 L 45 0 27.500 0 C 12.125 0, 10 0.194, 10 1.600 M 0.493 317.500 C 0.493 471.500, 0.609 534.351, 0.750 457.169 C 0.891 379.987, 0.891 253.987, 0.750 177.169 C 0.609 100.351, 0.493 163.500, 0.493 317.500 M 10 150 L 10 195 50 195 L 90 195 90 150 L 90 105 50 105 L 10 105 10 150 M 10 250 L 10 295 50 295 L 90 295 90 250 L 90 205 50 205 L 10 205 10 250 M 10 350 L 10 395 50 395 L 90 395 90 350 L 90 305 50 305 L 10 305 10 350 M 10 429 L 10 453 50 453 L 90 453 90 429 L 90 405 50 405 L 10 405 10 429 M 10 526.500 L 10 590 50 590 L 90 590 90 526.500 L 90 463 50 463 L 10 463 10 526.500 M 16.655 476.829 C 14.484 479.228, 14.555 482.287, 16.829 484.345 C 19.206 486.496, 21.291 486.440, 23.345 484.171 C 25.516 481.772, 25.445 478.713, 23.171 476.655 C 20.794 474.504, 18.709 474.560, 16.655 476.829 M 46.655 476.829 C 44.484 479.228, 44.555 482.287, 46.829 484.345 C 49.206 486.496, 51.291 486.440, 53.345 484.171 C 55.516 481.772, 55.445 478.713, 53.171 476.655 C 50.794 474.504, 48.709 474.560, 46.655 476.829 M 76.655 476.829 C 74.484 479.228, 74.555 482.287, 76.829 484.345 C 79.206 486.496, 81.291 486.440, 83.345 484.171 C 85.516 481.772, 85.445 478.713, 83.171 476.655 C 80.794 474.504, 78.709 474.560, 76.655 476.829 M 31.655 494.829 C 29.484 497.228, 29.555 500.287, 31.829 502.345 C 34.206 504.496, 36.291 504.440, 38.345 502.171 C 40.516 499.772, 40.445 496.713, 38.171 494.655 C 35.794 492.504, 33.709 492.560, 31.655 494.829 M 60.473 495.030 C 56.352 499.583, 63.417 506.648, 67.970 502.527 C 70.543 500.199, 70.554 497.554, 68 495 C 65.446 492.446, 62.801 492.457, 60.473 495.030 M 16.655 511.829 C 14.484 514.228, 14.555 517.287, 16.829 519.345 C 19.206 521.496, 21.291 521.440, 23.345 519.171 C 25.516 516.772, 25.445 513.713, 23.171 511.655 C 20.794 509.504, 18.709 509.560, 16.655 511.829 M 46.655 511.829 C 44.484 514.228, 44.555 517.287, 46.829 519.345 C 49.206 521.496, 51.291 521.440, 53.345 519.171 C 55.516 516.772, 55.445 513.713, 53.171 511.655 C 50.794 509.504, 48.709 509.560, 46.655 511.829 M 76.655 511.829 C 74.484 514.228, 74.555 517.287, 76.829 519.345 C 79.206 521.496, 81.291 521.440, 83.345 519.171 C 85.516 516.772, 85.445 513.713, 83.171 511.655 C 80.794 509.504, 78.709 509.560, 76.655 511.829 M 31.655 526.829 C 29.484 529.228, 29.555 532.287, 31.829 534.345 C 34.206 536.496, 36.291 536.440, 38.345 534.171 C 40.516 531.772, 40.445 528.713, 38.171 526.655 C 35.794 524.504, 33.709 524.560, 31.655 526.829 M 60.473 527.030 C 56.352 531.583, 63.417 538.648, 67.970 534.527 C 70.543 532.199, 70.554 529.554, 68 527 C 65.446 524.446, 62.801 524.457, 60.473 527.030 M 16.655 541.829 C 14.484 544.228, 14.555 547.287, 16.829 549.345 C 19.206 551.496, 21.291 551.440, 23.345 549.171 C 25.516 546.772, 25.445 543.713, 23.171 541.655 C 20.794 539.504, 18.709 539.560, 16.655 541.829 M 46.655 541.829 C 44.484 544.228, 44.555 547.287, 46.829 549.345 C 49.206 551.496, 51.291 551.440, 53.345 549.171 C 55.516 546.772, 55.445 543.713, 53.171 541.655 C 50.794 539.504, 48.709 539.560, 46.655 541.829 M 76.655 541.829 C 74.484 544.228, 74.555 547.287, 76.829 549.345 C 79.206 551.496, 81.291 551.440, 83.345 549.171 C 85.516 546.772, 85.445 543.713, 83.171 541.655 C 80.794 539.504, 78.709 539.560, 76.655 541.829 M 31.655 556.829 C 29.484 559.228, 29.555 562.287, 31.829 564.345 C 34.206 566.496, 36.291 566.440, 38.345 564.171 C 40.516 561.772, 40.445 558.713, 38.171 556.655 C 35.794 554.504, 33.709 554.560, 31.655 556.829 M 60.473 557.030 C 56.352 561.583, 63.417 568.648, 67.970 564.527 C 70.543 562.199, 70.554 559.554, 68 557 C 65.446 554.446, 62.801 554.457, 60.473 557.030 M 16.655 571.829 C 14.484 574.228, 14.555 577.287, 16.829 579.345 C 19.206 581.496, 21.291 581.440, 23.345 579.171 C 25.516 576.772, 25.445 573.713, 23.171 571.655 C 20.794 569.504, 18.709 569.560, 16.655 571.829 M 46.655 571.829 C 44.484 574.228, 44.555 577.287, 46.829 579.345 C 49.206 581.496, 51.291 581.440, 53.345 579.171 C 55.516 576.772, 55.445 573.713, 53.171 571.655 C 50.794 569.504, 48.709 569.560, 46.655 571.829 M 76.655 571.829 C 74.484 574.228, 74.555 577.287, 76.829 579.345 C 79.206 581.496, 81.291 581.440, 83.345 579.171 C 85.516 576.772, 85.445 573.713, 83.171 571.655 C 80.794 569.504, 78.709 569.560, 76.655 571.829" stroke="none" fill="#b4b4b4" fill-rule="evenodd"/></svg>