<svg xmlns="http://www.w3.org/2000/svg" width="1100" height="700" viewBox="0 0 1100 700" version="1.1"><path d="" stroke="none" fill="#b8b4b4" fill-rule="evenodd"/><path d="M 199 39.500 L 199 60 230 60 L 261 60 261 96.564 L 261 133.129 252.954 141.229 C 248.529 145.684, 242.454 153.017, 239.454 157.525 C 236.455 162.034, 232.169 169.630, 229.931 174.405 C 227.693 179.181, 224.699 187.456, 223.278 192.794 C 220.926 201.626, 220.653 204.676, 220.245 226.664 L 219.797 250.828 184.149 251.249 C 154.417 251.600, 147.510 251.953, 142.535 253.378 C 139.254 254.318, 133.629 256.510, 130.035 258.251 C 125.495 260.448, 120.979 263.909, 115.241 269.587 C 108.457 276.301, 106.289 279.254, 103.097 286.130 C 100.959 290.734, 98.713 296.885, 98.105 299.799 C 97.497 302.714, 97 308.901, 97 313.549 L 97 322 78.500 322 L 60 322 60 291 L 60 260 39.500 260 L 19 260 19 311.500 L 19 363 78.500 363 L 138 363 138.016 335.250 C 138.032 308.380, 138.104 307.376, 140.266 303.595 C 141.495 301.447, 144.079 298.419, 146.010 296.865 C 148.124 295.163, 151.657 293.634, 154.896 293.020 C 158.103 292.411, 180.594 292, 210.636 292 L 261 292 261 252.958 C 261 221.964, 261.315 212.327, 262.528 206.208 C 263.423 201.692, 265.893 194.736, 268.492 189.411 C 271.595 183.052, 274.953 178.135, 279.671 173.038 C 283.380 169.032, 289.921 163.297, 294.207 160.294 L 302 154.834 302 86.917 L 302 19 250.500 19 L 199 19 199 39.500 M 363 86.769 L 363 154.538 372.074 160.942 C 377.065 164.465, 383.169 169.631, 385.639 172.423 C 388.110 175.216, 391.895 180.441, 394.052 184.036 C 396.209 187.631, 399.212 193.931, 400.725 198.036 L 403.476 205.500 403.773 284.250 L 404.069 363 455.535 363 L 507 363 507.017 290.750 C 507.031 232.484, 507.307 217.214, 508.443 211.856 C 509.217 208.202, 510.769 203.413, 511.891 201.213 C 513.013 199.014, 515.799 195.616, 518.082 193.662 C 520.365 191.707, 524.309 189.401, 526.847 188.536 C 529.384 187.672, 535.519 186.500, 540.480 185.933 C 546.502 185.245, 626.283 185.009, 780.500 185.222 C 987.253 185.508, 1012.025 185.707, 1016.500 187.115 C 1019.250 187.980, 1022.850 189.424, 1024.500 190.324 C 1026.150 191.223, 1028.449 192.776, 1029.608 193.775 C 1030.768 194.774, 1032.913 197.485, 1034.374 199.800 C 1035.835 202.115, 1037.705 206.915, 1038.528 210.466 C 1039.835 216.100, 1039.992 240.722, 1039.763 403.711 L 1039.500 590.500 1037.324 595.809 C 1036.127 598.729, 1033.974 602.657, 1032.540 604.537 C 1031.106 606.417, 1027.974 609.103, 1025.580 610.506 C 1023.186 611.909, 1018.139 613.711, 1014.364 614.511 C 1008.471 615.760, 974.339 615.966, 773 615.968 C 566.083 615.970, 537.737 615.791, 532.014 614.442 C 528.446 613.601, 523.624 611.797, 521.297 610.434 C 518.971 609.071, 515.910 606.437, 514.495 604.582 C 513.080 602.727, 510.927 598.575, 509.711 595.355 C 507.504 589.510, 507.500 589.365, 507.217 506.750 L 506.934 424 455.467 424 L 404 424 404 501.583 C 404 576.616, 403.932 579.432, 401.942 587.226 C 400.810 591.659, 398.593 597.845, 397.014 600.973 C 395.435 604.100, 392.501 608.873, 390.493 611.580 C 388.486 614.286, 384.291 618.890, 381.172 621.812 C 378.052 624.733, 372.917 628.701, 369.761 630.628 C 366.604 632.555, 360.304 635.504, 355.761 637.180 C 349.013 639.669, 345.460 640.323, 336.360 640.748 C 327.741 641.151, 323.554 640.869, 317.860 639.502 C 313.812 638.530, 307.825 636.627, 304.557 635.273 C 301.288 633.919, 296.015 631.047, 292.839 628.891 C 289.663 626.734, 284.905 622.810, 282.265 620.170 C 279.626 617.531, 275.300 612.201, 272.653 608.327 C 269.944 604.361, 266.467 597.396, 264.699 592.391 L 261.559 583.500 261.213 540.274 L 260.867 497.049 205.526 496.774 L 150.184 496.500 146.342 493.442 C 144.229 491.760, 141.487 488.402, 140.250 485.980 C 138.071 481.715, 138 480.671, 138 452.788 L 138 424 78.500 424 L 19 424 19 475.500 L 19 527 39.500 527 L 60 527 60 496 L 60 465 78.500 465 L 97 465 97 475.290 C 97 481.193, 97.646 488.121, 98.515 491.540 C 99.348 494.818, 101.572 500.660, 103.457 504.522 C 105.342 508.384, 109.047 514.036, 111.692 517.082 C 114.336 520.128, 118.430 524.083, 120.788 525.870 C 123.147 527.658, 127.397 530.287, 130.234 531.711 C 133.071 533.136, 138.116 535.204, 141.446 536.306 C 146.941 538.126, 150.849 538.351, 183.750 538.741 L 220 539.171 220 560.179 C 220 577.440, 220.367 582.985, 222.056 591.277 C 223.187 596.826, 225.673 605.408, 227.581 610.347 C 229.488 615.286, 233.112 622.741, 235.634 626.914 C 238.156 631.086, 241.845 636.525, 243.833 639 C 245.821 641.475, 249.484 645.680, 251.973 648.345 C 254.463 651.010, 259.841 655.707, 263.925 658.783 C 268.009 661.859, 274.926 666.303, 279.295 668.659 C 283.665 671.015, 291.124 674.292, 295.870 675.941 C 300.617 677.590, 308.775 679.679, 314 680.583 C 321.045 681.803, 326.988 682.092, 337 681.704 C 346.782 681.324, 353.137 680.495, 360.074 678.692 C 365.339 677.324, 373.142 674.750, 377.413 672.972 C 381.684 671.194, 389.156 667.127, 394.017 663.936 C 398.878 660.744, 406.320 654.841, 410.555 650.818 C 414.790 646.795, 420.884 639.804, 424.097 635.283 C 427.311 630.761, 431.300 624.368, 432.962 621.076 C 434.623 617.784, 437.117 612.078, 438.503 608.395 C 439.889 604.713, 441.918 597.309, 443.012 591.943 C 444.862 582.861, 445 578.134, 445 523.593 L 445 465 455.500 465 L 466 465 466 524.276 C 466 558.760, 466.429 586.970, 467.025 591.724 C 467.588 596.218, 469.178 603.354, 470.558 607.580 C 471.937 611.806, 474.848 618.314, 477.025 622.043 C 479.202 625.771, 483.316 631.372, 486.166 634.491 C 489.016 637.610, 493.717 641.677, 496.613 643.529 C 499.509 645.382, 503.790 647.873, 506.127 649.065 C 508.464 650.257, 515.514 652.530, 521.794 654.116 L 533.213 657 774.094 657 L 1014.975 657 1024.262 654.587 C 1029.371 653.260, 1036.092 651.049, 1039.200 649.675 C 1042.307 648.301, 1047.525 645.360, 1050.795 643.139 C 1054.064 640.919, 1059.233 636.347, 1062.280 632.980 C 1065.327 629.613, 1069.669 623.177, 1071.928 618.679 C 1074.187 614.181, 1077.040 606.675, 1078.268 602 L 1080.500 593.500 1080.500 401 C 1080.500 214.934, 1080.436 208.249, 1078.593 201 C 1077.545 196.875, 1075.834 191.475, 1074.792 189 C 1073.750 186.525, 1071.983 182.727, 1070.866 180.560 C 1069.748 178.393, 1066.757 173.976, 1064.219 170.746 C 1061.681 167.515, 1056.888 162.830, 1053.567 160.334 C 1050.246 157.838, 1045.498 154.774, 1043.015 153.526 C 1040.532 152.278, 1035.575 150.337, 1032 149.212 C 1028.425 148.087, 1023.023 146.447, 1019.995 145.568 C 1015.006 144.118, 991.758 143.994, 771.495 144.245 L 528.500 144.521 519.246 147.242 C 514.156 148.739, 508.166 150.895, 505.935 152.033 C 503.704 153.172, 499.509 155.618, 496.613 157.471 C 493.717 159.323, 489.016 163.390, 486.166 166.509 C 483.316 169.628, 479.226 175.189, 477.077 178.868 C 474.928 182.547, 472.224 188.368, 471.066 191.803 C 469.909 195.239, 468.296 201.218, 467.481 205.090 C 466.276 210.817, 466 222.383, 466 267.065 L 466 322 455.557 322 L 445.113 322 444.753 261.250 L 444.393 200.500 441.620 191.102 C 440.095 185.933, 437.111 177.948, 434.990 173.358 C 432.870 168.767, 428.967 161.746, 426.317 157.756 C 423.668 153.765, 417.563 146.406, 412.750 141.402 L 404 132.304 404 96.152 L 404 60 435 60 L 466 60 466 39.500 L 466 19 414.500 19 L 363 19 363 86.769 M 608 274.494 L 608 294.988 772 295.244 L 936 295.500 936 274.750 L 936 254 772 254 L 608 254 608 274.494 M 608 397.500 L 608 418 772 418 L 936 418 936 397.500 L 936 377 772 377 L 608 377 608 397.500 M 608 520.500 L 608 541 772 541 L 936 541 936 520.500 L 936 500 772 500 L 608 500 608 520.500" stroke="none" fill="#b4b4b4" fill-rule="evenodd"/></svg>